<svg xmlns="http://www.w3.org/2000/svg" width="640" height="640" viewBox="0 0 640 640" fill="none">
  <defs>
    <linearGradient id="bg" x1="64" y1="48" x2="576" y2="592" gradientUnits="userSpaceOnUse">
      <stop stop-color="#F5E8D3"/>
      <stop offset="1" stop-color="#E5C79B"/>
    </linearGradient>
    <linearGradient id="accent" x1="144" y1="160" x2="496" y2="480" gradientUnits="userSpaceOnUse">
      <stop stop-color="#8F3D2E"/>
      <stop offset="1" stop-color="#5D1826"/>
    </linearGradient>
  </defs>
  <rect width="640" height="640" rx="48" fill="url(#bg)"/>
  <rect x="96" y="96" width="448" height="448" rx="36" fill="#FFF8EE" fill-opacity="0.74"/>
  <path d="M232 190C232 166.804 250.804 148 274 148H366C389.196 148 408 166.804 408 190V222H442C476.242 222 504 249.758 504 284C504 318.242 476.242 346 442 346H408V386C408 433.496 369.496 472 322 472H318C270.504 472 232 433.496 232 386V190Z" fill="url(#accent)"/>
  <path d="M408 264H440C451.046 264 460 272.954 460 284C460 295.046 451.046 304 440 304H408V264Z" fill="#DFA35E"/>
  <path d="M276 116C285.333 126.667 286.667 137.333 280 148" stroke="#8F3D2E" stroke-width="18" stroke-linecap="round"/>
  <path d="M322 104C331.333 114.667 332.667 125.333 326 136" stroke="#8F3D2E" stroke-width="18" stroke-linecap="round"/>
  <path d="M368 116C377.333 126.667 378.667 137.333 372 148" stroke="#8F3D2E" stroke-width="18" stroke-linecap="round"/>
  <rect x="176" y="508" width="288" height="26" rx="13" fill="#5D1826" fill-opacity="0.18"/>
  <text x="320" y="580" text-anchor="middle" font-family="Arial, Helvetica, sans-serif" font-size="34" font-weight="700" fill="#6B2230">FOTO PRODUK</text>
</svg>
